<?xml version="1.0" encoding="utf-8"?>
<!-- Generator: Adobe Illustrator 27.5.0, SVG Export Plug-In . SVG Version: 6.00 Build 0)  -->
<svg version="1.1" xmlns="http://www.w3.org/2000/svg" xmlns:xlink="http://www.w3.org/1999/xlink" x="0px" y="0px"
	 viewBox="0 0 750 500" style="enable-background:new 0 0 750 500;" xml:space="preserve">
<g id="BACKGROUND" display="none">
	<rect style="fill:#FFFFFF;" width="750" height="500"/>
	<g>
		<g>
			<path style="fill:#F7F7F7;" d="M196.402,193.691c-21.509-0.4-45.997-4.164-57.848-22.118
				c-10.893-16.505-6.251-39.621,5.873-55.243c12.124-15.623,30.173-25.337,47.912-34.078
				c31.016-15.283,64.201-29.278,98.751-27.911c34.549,1.367,70.587,22.308,78.853,55.882c5.257,21.354-2.022,45.322-18.266,60.147
				c-20.23,18.463-41.85,13.226-65.982,15.204C255.619,188.041,226.954,194.259,196.402,193.691z"/>
			<path style="fill:#F7F7F7;" d="M132.443,341.338c-21.631-1.455-43.671-5.021-53.917-21.021c-10.246-16-10.642-34.972-10.8-53.121
				c-0.242-27.781-0.405-56.05,9.11-82.668c9.515-26.618,30.338-51.824,61.101-62.306c41.762-14.229,89.644,1.363,134.155-4.686
				c47.789-6.493,85.294-36.629,128.333-55.175c33.997-14.65,72.84-22.184,110.866-18.767c38.026,3.417,75,18.272,99.584,42.774
				c49.778,49.613,97.763,205.03,46.149,247.79c-22.727,18.828-67.106,10.284-108.363,10.284
				C548.661,344.442,235.944,348.3,132.443,341.338z"/>
			<g>
				
					<line style="fill:none;stroke:#FFFFFF;stroke-width:10;stroke-miterlimit:10;" x1="361.949" y1="66.279" x2="361.949" y2="355.098"/>
				
					<line style="fill:none;stroke:#FFFFFF;stroke-width:10;stroke-miterlimit:10;" x1="361.949" y1="126.115" x2="470.962" y2="126.115"/>
				
					<line style="fill:none;stroke:#FFFFFF;stroke-width:10;stroke-miterlimit:10;" x1="370.024" y1="71.448" x2="470.3" y2="71.448"/>
				
					<line style="fill:none;stroke:#FFFFFF;stroke-width:10;stroke-miterlimit:10;" x1="361.949" y1="192.238" x2="470.962" y2="192.238"/>
				
					<ellipse transform="matrix(0.2163 -0.9763 0.9763 0.2163 147.3547 501.0769)" style="fill:#FFFFFF;" cx="385.784" cy="158.755" rx="9.184" ry="9.184"/>
				
					<line style="fill:none;stroke:#FFFFFF;stroke-width:10;stroke-miterlimit:10;" x1="361.949" y1="266.715" x2="470.962" y2="266.715"/>
				
					<ellipse transform="matrix(0.7566 -0.6538 0.6538 0.7566 -58.6104 308.9998)" style="fill:#FFFFFF;" cx="385.784" cy="233.233" rx="9.184" ry="9.184"/>
				
					<line style="fill:none;stroke:#FFFFFF;stroke-width:10;stroke-miterlimit:10;" x1="361.949" y1="341.193" x2="470.962" y2="341.193"/>
				
					<ellipse transform="matrix(0.2163 -0.9763 0.9763 0.2163 1.9244 617.8187)" style="fill:#FFFFFF;" cx="385.784" cy="307.711" rx="9.184" ry="9.184"/>
				<circle style="fill:#FFFFFF;" cx="385.784" cy="99.706" r="9.184"/>
				
					<line style="fill:none;stroke:#FFFFFF;stroke-width:10;stroke-miterlimit:10;" x1="469.773" y1="39.666" x2="469.773" y2="355.098"/>
			</g>
			<g>
				
					<line style="fill:none;stroke:#FFFFFF;stroke-width:10;stroke-miterlimit:10;" x1="505.451" y1="35.041" x2="505.451" y2="355.098"/>
				
					<line style="fill:none;stroke:#FFFFFF;stroke-width:10;stroke-miterlimit:10;" x1="505.451" y1="126.115" x2="614.464" y2="126.115"/>
				
					<line style="fill:none;stroke:#FFFFFF;stroke-width:10;stroke-miterlimit:10;" x1="506.259" y1="71.448" x2="622.538" y2="71.448"/>
				
					<line style="fill:none;stroke:#FFFFFF;stroke-width:10;stroke-miterlimit:10;" x1="505.451" y1="192.238" x2="614.464" y2="192.238"/>
				
					<ellipse transform="matrix(0.9248 -0.3805 0.3805 0.9248 -20.5911 213.364)" style="fill:#FFFFFF;" cx="529.286" cy="158.755" rx="9.184" ry="9.184"/>
				
					<line style="fill:none;stroke:#FFFFFF;stroke-width:10;stroke-miterlimit:10;" x1="505.451" y1="266.715" x2="614.464" y2="266.715"/>
				
					<ellipse transform="matrix(0.1597 -0.9872 0.9872 0.1597 214.5068 718.4703)" style="fill:#FFFFFF;" cx="529.286" cy="233.233" rx="9.184" ry="9.184"/>
				
					<line style="fill:none;stroke:#FFFFFF;stroke-width:10;stroke-miterlimit:10;" x1="505.451" y1="341.193" x2="614.464" y2="341.193"/>
				
					<ellipse transform="matrix(0.9248 -0.3805 0.3805 0.9248 -77.276 224.5713)" style="fill:#FFFFFF;" cx="529.286" cy="307.711" rx="9.184" ry="9.184"/>
				<circle style="fill:#FFFFFF;" cx="529.286" cy="99.706" r="9.184"/>
				
					<line style="fill:none;stroke:#FFFFFF;stroke-width:10;stroke-miterlimit:10;" x1="613.274" y1="39.666" x2="613.274" y2="355.098"/>
			</g>
			<g>
				<g>
					<g>
						<rect x="194.658" y="71.448" style="fill:#EEEEEE;" width="15.371" height="64.998"/>
						<rect x="214.016" y="80.455" style="fill:#EEEEEE;" width="32.461" height="55.991"/>
						<rect x="250.018" y="87.196" style="fill:#EEEEEE;" width="16.231" height="49.25"/>
						<rect x="269.886" y="75.855" style="fill:#EEEEEE;" width="16.231" height="60.591"/>
						<rect x="302.599" y="75.855" style="fill:#EEEEEE;" width="16.231" height="60.591"/>
						<rect x="289.986" y="83.3" style="fill:#EEEEEE;" width="8.115" height="53.146"/>
					</g>
					<rect x="181.034" y="133.079" style="fill:#FFFFFF;" width="147.727" height="6.734"/>
				</g>
				<g>
					<g>
						<rect x="194.658" y="140.007" style="fill:#EEEEEE;" width="15.371" height="64.998"/>
						<rect x="214.016" y="149.015" style="fill:#EEEEEE;" width="32.461" height="55.991"/>
						<rect x="250.018" y="155.755" style="fill:#EEEEEE;" width="16.231" height="49.25"/>
						<rect x="269.886" y="144.414" style="fill:#EEEEEE;" width="16.231" height="60.591"/>
						<rect x="302.599" y="144.414" style="fill:#EEEEEE;" width="16.231" height="60.591"/>
						<rect x="289.986" y="151.859" style="fill:#EEEEEE;" width="8.115" height="53.146"/>
					</g>
					<rect x="181.034" y="201.639" style="fill:#FFFFFF;" width="147.727" height="6.734"/>
				</g>
				<g>
					<g>
						<rect x="194.658" y="208.566" style="fill:#EEEEEE;" width="15.371" height="64.998"/>
						<rect x="214.016" y="217.574" style="fill:#EEEEEE;" width="32.461" height="55.991"/>
						<rect x="250.018" y="224.314" style="fill:#EEEEEE;" width="16.231" height="49.25"/>
						<rect x="269.886" y="212.974" style="fill:#EEEEEE;" width="16.231" height="60.591"/>
						<rect x="302.599" y="212.974" style="fill:#EEEEEE;" width="16.231" height="60.591"/>
						<rect x="289.986" y="220.418" style="fill:#EEEEEE;" width="8.115" height="53.146"/>
					</g>
					<rect x="181.034" y="270.198" style="fill:#FFFFFF;" width="147.727" height="6.734"/>
				</g>
				<g>
					<g>
						<rect x="194.658" y="277.126" style="fill:#EEEEEE;" width="15.371" height="64.998"/>
						<rect x="214.016" y="286.133" style="fill:#EEEEEE;" width="32.461" height="55.991"/>
						<rect x="250.018" y="292.874" style="fill:#EEEEEE;" width="16.231" height="49.25"/>
						<rect x="269.886" y="281.533" style="fill:#EEEEEE;" width="16.231" height="60.591"/>
						<rect x="302.599" y="281.533" style="fill:#EEEEEE;" width="16.231" height="60.591"/>
						<rect x="289.986" y="288.977" style="fill:#EEEEEE;" width="8.115" height="53.147"/>
					</g>
					<rect x="181.034" y="338.757" style="fill:#FFFFFF;" width="147.727" height="6.734"/>
				</g>
				<rect x="321.268" y="58.602" style="fill:#FFFFFF;" width="9.16" height="301.399"/>
				<rect x="180.148" y="58.602" style="fill:#FFFFFF;" width="9.16" height="301.399"/>
			</g>
		</g>
		<path style="fill:#F9F3F0;" d="M617.59,441.475c-66.19,30.1-99.62-12.8-170.19,0.9c-70.57,13.69-181.45,35.67-247.62,12.36
			c-18.03-6.35-21.17-15.82-23.12-24.49c-1.16-5.24-1.89-10.18-5.2-13.97c-1.52-1.75-3.58-3.25-6.49-4.42
			c-5.27-2.14-13.31-3.19-25.88-2.65c-10.8,0.46-22.44-1.25-33.52-4.99c-21.05-7.1-40.04-21.54-47.2-42.47
			c-5.12-14.98,1.75-11.19,16.25-11.1c25.35,0.14,50.71,0.36,76.07,0.55c104.72,0.76,209.45,1.51,314.18,2.28
			c58.42,0.42,155.94,1.27,214.36,1.27C703.1,354.745,704.92,401.755,617.59,441.475z"/>
	</g>
</g>
<g id="OBJECTS">
	<path style="fill:none;stroke:#AD523D;stroke-width:2;stroke-miterlimit:10;" d="M618.94,438.141"/>
	<ellipse style="fill:#F4E9E4;" cx="499.532" cy="423.38" rx="150.405" ry="9.654"/>
	<path style="fill:#F4E9E4;" d="M283.97,420.995c0,5.12-46.31,9.26-103.44,9.26c-1.3,0-2.59,0-3.87-0.01
		c-1.16-5.24-1.89-10.18-5.2-13.97c-1.52-1.75-3.58-3.25-6.49-4.42c5.08-0.07,10.27-0.11,15.56-0.11
		C237.66,411.745,283.97,415.885,283.97,420.995z"/>
	<g>
		<g>
			<path style="fill:#CA9178;" d="M437.907,141.687l-40.19-42.966l-15.748,8.097c0,0,8.602,20.573,33.882,51.558L437.907,141.687z"
				/>
			<g>
				<path style="fill:#A5BECF;" d="M388.201,88.557c15.057-5.928,21.341,6.585,12.093,17.164L388.201,88.557z"/>
				<path style="fill:#A5BECF;" d="M387.751,113.497c-14.292,5.251-19.933-6.655-11.005-16.407L387.751,113.497z"/>
				<path style="fill:#AF714F;" d="M397.717,98.721c0,0-7.951-11.03-10.646-22.634l-23.324,8.629l18.222,22.103L397.717,98.721z"/>
				<path style="fill:#AF714F;" d="M394.916,94.38c-3.603-11.084-1.275-19.758-1.275-19.758l-2.956-10.817
					c-0.396-1.451-1.853-2.343-3.325-2.036l0,0c-1.378,0.286-2.34,1.537-2.263,2.943l0.304,5.543l-3.916,13.444L394.916,94.38z"/>
				<path style="fill:#AF714F;" d="M388.864,81.967l-12.262-21.335l-9.815-4.961c-1.502-0.759-3.329-0.029-3.894,1.556l0,0
					c-0.43,1.206,0.013,2.549,1.077,3.262l6.558,4.397l8.092,20.624L388.864,81.967z"/>
				<path style="fill:#AF714F;" d="M382.655,87.656l-12.262-21.335l-9.815-4.96c-1.502-0.759-3.329-0.029-3.894,1.555l0,0
					c-0.43,1.206,0.013,2.549,1.077,3.262l6.558,4.396l8.092,20.625L382.655,87.656z"/>
				<path style="fill:#AF714F;" d="M383.508,92.23l-15.023-19.489l-10.393-3.594c-1.59-0.55-3.302,0.419-3.649,2.066l0,0
					c-0.264,1.252,0.356,2.524,1.506,3.087l7.09,3.473l5.513,9.881C371.503,92.943,378.102,94.963,383.508,92.23L383.508,92.23z"/>
				<path style="fill:#AF714F;" d="M388.822,93.509l-19.604-14.873l-10.972-0.746c-1.679-0.114-3.077,1.27-2.981,2.95l0,0
					c0.073,1.278,1.005,2.343,2.262,2.585l7.752,1.495l15.487,15.843L388.822,93.509z"/>
			</g>
			<g>
				<path style="fill:#8E5034;" d="M379.982,96.375c-0.079-0.128-7.828-12.868,3.736-23.012l1.165,1.329
					c-10.419,9.14-3.692,20.277-3.401,20.747L379.982,96.375z"/>
			</g>
		</g>
		<path style="fill:#A5BECF;" d="M473.663,174.826l-12.869,7.999l-1.673,1.043l-25.465,15.828c0,0-45.599-40.924-55.3-97.262
			l15.801-10.488l32.117,34.988l36.782,37.17L473.663,174.826z"/>
		<path style="fill:none;stroke:#7CA0BA;stroke-width:2;stroke-miterlimit:10;" d="M393.982,107.996l-12.856,6.901
			c0,0,6.754,31.196,29.641,57.998"/>
		
			<ellipse transform="matrix(0.2578 -0.9662 0.9662 0.2578 240.8983 506.3769)" style="fill:#291D1F;" cx="450.06" cy="96.383" rx="15.671" ry="15.671"/>
		
			<ellipse transform="matrix(0.3082 -0.9513 0.9513 0.3082 201.4816 503.4444)" style="fill:#291D1F;" cx="446.889" cy="113.191" rx="15.671" ry="15.671"/>
		<circle style="fill:#291D1F;" cx="488.589" cy="99.074" r="18.998"/>
		<circle style="fill:#291D1F;" cx="489.596" cy="123.735" r="17.991"/>
		<circle style="fill:#291D1F;" cx="469.591" cy="86.526" r="18.998"/>
		
			<ellipse transform="matrix(0.9254 -0.379 0.379 0.9254 -13.8755 190.3172)" style="fill:#291D1F;" cx="476.428" cy="130.399" rx="15.71" ry="15.71"/>
		<g>
			<path style="fill:#8E5034;" d="M423.169,310.693l15.898-77.668h27.087l-17.266,84.354l-11.034,83.789h-27.087l10.142-77.023
				C421.504,319.635,422.257,315.148,423.169,310.693z"/>
			<g>
				<g>
					<polygon style="fill:#FFFFFF;" points="440.433,401.042 409.931,401.042 414.813,361.173 445.033,363.485 					"/>
					<g>
						<path style="fill:#2C2C2E;" d="M442.815,425.922h-69.204l1.809-6.177c0.596-2.015,1.485-3.886,2.619-5.577
							c2.406-3.598,5.93-6.369,10.117-7.845l1.874-0.66c1.839-0.648,3.563-1.499,5.162-2.531c1.376-0.888,2.651-1.895,3.803-3.035
							c2.514-2.447,4.495-5.446,5.768-8.828h38.885l-0.646,22.898L442.815,425.922z"/>
						<line style="fill:none;stroke:#FFFFFF;stroke-miterlimit:10;" x1="416.234" y1="395.175" x2="402.564" y2="395.175"/>
						<line style="fill:none;stroke:#FFFFFF;stroke-miterlimit:10;" x1="399.037" y1="399.935" x2="412.708" y2="399.935"/>
						<g>
							<path style="fill:none;stroke:#FFFFFF;stroke-miterlimit:10;" d="M429.827,409.274c0.029,0.932-0.702,1.687-1.634,1.687
								c-0.932,0-1.711-0.755-1.74-1.687c-0.029-0.932,0.702-1.687,1.634-1.687C429.018,407.587,429.798,408.342,429.827,409.274z"
								/>
							<path style="fill:none;stroke:#FFFFFF;stroke-miterlimit:10;" d="M421.571,409.274c0.029,0.932-0.702,1.687-1.634,1.687
								c-0.932,0-1.711-0.755-1.74-1.687c-0.029-0.932,0.703-1.687,1.634-1.687C420.762,407.587,421.541,408.342,421.571,409.274z"
								/>
						</g>
						<path style="fill:#FFFFFF;" d="M442.815,425.922h-69.204l1.809-6.177c0.596-2.015,1.485-3.886,2.619-5.577h64.964
							L442.815,425.922z"/>
						
							<line style="fill:none;stroke:#8CACC2;stroke-width:2;stroke-miterlimit:10;" x1="443.188" y1="420.045" x2="399.669" y2="420.045"/>
						<path style="fill:#FFFFFF;" d="M412.45,425.922h-38.839l1.809-6.177c0.596-2.015,1.485-3.886,2.619-5.577
							c2.406-3.598,5.93-6.369,10.117-7.845l1.874-0.66c1.839-0.648,3.563-1.499,5.162-2.531
							C404.201,407.295,410.909,415.799,412.45,425.922z"/>
						<path style="fill:#2C2C2E;" d="M404.765,391.27l-0.888-3.443c-0.625-2.424,1.146-4.731,3.631-4.731h3.466
							c2.737,0,5.331,1.391,6.885,3.692l3.028,4.482H404.765z"/>
					</g>
				</g>
			</g>
		</g>
		<g>
			<path style="fill:none;stroke:#232321;stroke-width:4;stroke-miterlimit:10;" d="M416.957,177.241c0,0-2.643,32.09,21.38,40.432"
				/>
			<path style="fill:#5E6D84;" d="M462.192,144.505l22.382,4.763c13.687,2.913,25.176,12.161,30.919,24.922
				c7.322,16.271,14.064,40.005,6.707,63.605c-10.247,32.875-84.124,8.208-84.124,8.208l-1.541-87.36L462.192,144.505z"/>
			<path style="fill:#414141;" d="M462.192,144.505l12.766,4.255c15.899,5.299,27.388,19.174,29.654,35.779
				c2.089,15.308,3.463,34.561,0.826,51.221c-5.384,34.011-67.362,10.243-67.362,10.243l-1.541-87.36L462.192,144.505z"/>
			<polygon style="fill:#5E6D84;" points="507.906,245.534 490.603,234.565 510.022,214.087 			"/>
			<g>
				<g>
					<polygon style="fill:#FFFFFF;" points="487.354,402.098 456.902,403.427 456.976,362.251 486.967,364.103 					"/>
					
						<line style="fill:none;stroke:#8CACC2;stroke-width:2;stroke-miterlimit:10;" x1="487.358" y1="368.372" x2="456.583" y2="366.532"/>
					
						<line style="fill:none;stroke:#8CACC2;stroke-width:2;stroke-miterlimit:10;" x1="443.489" y1="370.592" x2="414.334" y2="368.849"/>
					<g>
						<path style="fill:#414141;" d="M490.072,426.831l-68.763-0.076l1.395-6.138c0.461-2.003,1.222-3.861,2.239-5.541
							c2.156-3.574,5.476-6.324,9.541-7.786l1.819-0.654c1.785-0.642,3.443-1.486,4.964-2.51c1.309-0.881,2.511-1.881,3.58-3.012
							c2.339-2.43,4.111-5.408,5.155-8.769l38.637,0.043l0.853,22.76L490.072,426.831z"/>
						<line style="fill:none;stroke:#FFFFFF;stroke-miterlimit:10;" x1="461.654" y1="396.239" x2="448.07" y2="396.224"/>
						<line style="fill:none;stroke:#FFFFFF;stroke-miterlimit:10;" x1="458.46" y1="400.967" x2="444.876" y2="400.952"/>
						<g>
							<path style="fill:none;stroke:#FFFFFF;stroke-miterlimit:10;" d="M476.079,410.268c0.09,0.926-0.588,1.676-1.514,1.675
								c-0.926-0.001-1.749-0.753-1.839-1.679c-0.09-0.926,0.588-1.676,1.514-1.675C475.166,408.59,475.989,409.342,476.079,410.268
								z"/>
							<path style="fill:none;stroke:#FFFFFF;stroke-miterlimit:10;" d="M467.876,410.259c0.09,0.926-0.588,1.676-1.514,1.675
								c-0.926-0.001-1.749-0.753-1.839-1.679c-0.09-0.926,0.588-1.676,1.514-1.675
								C466.963,408.581,467.786,409.333,467.876,410.259z"/>
						</g>
						<path style="fill:#FFFFFF;" d="M490.072,426.831l-68.763-0.076l1.395-6.138c0.461-2.003,1.222-3.861,2.239-5.541l64.55,0.071
							L490.072,426.831z"/>
						
							<line style="fill:none;stroke:#8CACC2;stroke-width:2;stroke-miterlimit:10;" x1="446.313" y1="420.941" x2="489.556" y2="420.988"/>
						<path style="fill:#FFFFFF;" d="M459.9,426.797l-38.592-0.043l1.395-6.138c0.461-2.003,1.222-3.861,2.239-5.541
							c2.156-3.574,5.476-6.324,9.541-7.786l1.819-0.654c1.785-0.642,3.443-1.486,4.964-2.51
							C450.487,408.273,457.708,416.733,459.9,426.797z"/>
						<path style="fill:#414141;" d="M450.002,392.345l-1.107-3.423c-0.78-2.41,0.829-4.701,3.299-4.699l3.444,0.004
							c2.72,0.003,5.387,1.388,7.082,3.677l3.301,4.459L450.002,392.345z"/>
					</g>
				</g>
				<polygon style="fill:#AF714F;" points="452.941,237.975 458.697,362.251 484.352,364.103 487.987,240.497 				"/>
			</g>
			<polygon style="fill:#A5BECF;" points="420.552,262.994 398.456,248.805 438.183,196.627 454.447,215.316 			"/>
			<g>
				<path style="fill:#414141;" d="M495.612,166.468l-2.36,146.574c0,0-66.48,12.209-99.269-28.846l30.711-51.531l5.844-9.813
					l-0.186-8.177l-1.6-71.572l31.649-1.132l20.819,6.162C492.668,151.961,495.205,157.911,495.612,166.468z"/>
			</g>
			
				<line style="fill:none;stroke:#2C2C2E;stroke-width:2;stroke-miterlimit:10;" x1="424.694" y1="262.343" x2="455.69" y2="288.535"/>
			<polygon style="fill:#2C2C2E;" points="497.073,214.087 493.78,280.25 457.458,275.51 462.567,238.278 424.694,232.665 
				430.538,222.852 430.352,214.675 			"/>
			<polygon style="fill:#A5BECF;" points="480.442,161.926 469.412,272.323 502.553,276.121 500.277,176.054 			"/>
			<g>
				<path style="fill:#5E6D84;" d="M411.407,186.092c-2.295-8.611-5.284-31.579,21.087-48.584c1.444-0.932,3.231-1.187,4.871-0.672
					l8.38,2.635c0.673,0.212,0.881,1.067,0.375,1.558c-4.914,4.766-18.846,20.269-24.628,44.837c-0.601,2.553-2.98,4.282-5.59,4.018
					l0,0C413.764,189.667,411.96,188.168,411.407,186.092z"/>
			</g>
			<g>
				<g>
					<path style="fill:#AF714F;" d="M456.201,162.71L456.201,162.71c-5.313-1.817-8.704-7.021-8.222-12.615l1.255-14.556
						l23.504,8.497l-0.373,7.7C471.973,159.862,463.899,165.343,456.201,162.71z"/>
					<path style="fill:#8E5034;" d="M448.233,148.217c9.884,11.262,24.133,3.519,24.133,3.519l1-14.361l-25.347-9.842
						L448.233,148.217z"/>
				</g>
				<g>
					<path style="fill:#AF714F;" d="M485.348,107.648l-3.66,10.269l-1.674,4.68l-4.486,12.564
						c-2.422,6.783-8.183,11.828-15.227,13.334l-2.254,0.482c-14.958,3.198-28.557-9.614-26.093-24.71
						c0.646-3.958,1.718-8.081,3.453-12.267c4.096-9.87,13.007-17.039,23.011-19.286l0.041-0.008l1.751-0.347l0.188-0.029
						c0.871-0.141,1.764-0.24,2.652-0.3c2.111-0.17,4.273-0.124,6.434,0.145l6.859,0.856
						C483.328,93.903,487.711,101.017,485.348,107.648z"/>
					<path d="M437.224,118.463c-0.504,2.607,0.458,4.986,2.149,5.312c1.691,0.327,3.47-1.522,3.974-4.128
						c0.504-2.607-0.458-4.985-2.149-5.312C439.507,114.008,437.728,115.856,437.224,118.463z"/>
					<g>
						<path style="fill:#AF714F;" d="M446.721,118.268c-2.316,4.354-5.519,4.992-7.684,4.817c-1.391-0.112-2.633,0.853-2.877,2.227
							l0,0c-0.32,1.812,0.456,3.643,1.982,4.671l5.398,3.639c3.091,1.372,6.691-0.215,7.764-3.422l3.636-10.871L446.721,118.268z"/>
						<g>
							<path style="fill:#8E5034;" d="M441.508,132.692l0.408-0.605l-3.569-2.406c-1.405-0.946-2.122-2.636-1.827-4.305
								c0.212-1.195,1.281-2.024,2.488-1.927c2.349,0.189,5.65-0.526,8.036-5.009l-0.645-0.343
								c-2.199,4.134-5.201,4.796-7.333,4.624c-1.583-0.127-2.987,0.959-3.266,2.527c-0.345,1.953,0.494,3.93,2.138,5.038
								L441.508,132.692z"/>
						</g>
					</g>
					<path d="M455.142,123.06c-0.504,2.607,0.458,4.985,2.149,5.312c1.691,0.327,3.47-1.522,3.974-4.129
						c0.504-2.607-0.458-4.985-2.149-5.312C457.425,118.604,455.646,120.452,455.142,123.06z"/>
					<path style="fill:#291D1F;" d="M462.817,112.605c6.039,3.222,8.075,0.158,3.824-3.005
						C462.069,106.198,455.303,108.597,462.817,112.605z"/>
					<path style="fill:#291D1F;" d="M444.975,107.933c4.982-0.329,3.914-3.546-0.185-3.985
						C440.38,103.477,438.776,108.343,444.975,107.933z"/>
					<path style="fill:#291D1F;" d="M477.459,126.872c-11.423-7.664-5.417-18.523-1.292-22.399
						c-11.423,0.883-11.995-8.636-11.995-8.636c-11.168,6.032-17.129-2.063-17.129-2.063s13.417-10.471,36.262,0
						C506.152,104.245,477.459,126.872,477.459,126.872z"/>
					<path style="fill:#FFC355;" d="M483.686,129.272c0,0,1.004-32.411-27.794-38.791l0,0c5.417-3.049,12.13-2.884,17.272,0.609
						C481.73,96.91,491.702,108.567,483.686,129.272z"/>
					<path style="fill:#AF714F;" d="M471.311,128.257c-0.561,5.889,3.759,11.119,9.648,11.68c5.889,0.561,11.119-3.759,11.68-9.648
						c0.561-5.89-3.759-11.119-9.648-11.68C477.101,118.047,471.872,122.367,471.311,128.257z"/>
					<g>
						<path style="fill:#212121;" d="M460.811,137.454c-0.355,0.639-0.718,1.248-1.099,1.812c-0.996,1.519-2.03,2.768-3.08,3.767
							c-5.777,5.473-12.067,3.34-15.246-1.922c-1.216-2.03-1.977-4.526-2.076-7.225c0,0,0.872-0.034,2.308-0.004
							C445.668,133.947,454.221,134.474,460.811,137.454z"/>
						<path style="fill:#FFFFFF;" d="M460.811,137.454c-0.355,0.639-0.718,1.248-1.099,1.812l-14.825-1.636
							c-1.055-0.117-1.969-0.787-2.396-1.759l-0.874-1.989C445.668,133.947,454.221,134.474,460.811,137.454z"/>
						<path style="fill:#B74B45;" d="M456.631,143.033c-5.777,5.473-12.067,3.34-15.246-1.922
							C445.544,139.441,450.755,139.216,456.631,143.033z"/>
					</g>
				</g>
			</g>
			<g>
				<g>
					<path style="fill:#A5BECF;" d="M482.743,150.115l-1.128,48.892l-0.658,28.704c0,0,8.228,1.782,16.576,3.619
						c1.483,0.327,2.966,0.655,4.404,0.964c6.741,1.517,12.595,2.837,12.956,2.999l0.014,0.016
						c-0.034,0.044,0.354-4.319,0.447-11.104c0.016-0.976,0.018-1.983,0.009-3.054C515.292,198.526,511.355,156.1,482.743,150.115z"
						/>
				</g>
				<path style="fill:#5E6D84;" d="M472.9,201.337c-5.136-7.349-15.791-27.832,2.406-52.856c1.5-2.063,4.043-3.104,6.556-2.668
					l7.892,1.367c0.974,0.169,1.504,1.231,1.045,2.107c-3.427,6.54-12.031,25.179-7.791,52.012c0.402,2.544-2.768,4.036-4.471,2.104
					h0C476.411,203.943,474.156,203.136,472.9,201.337z"/>
			</g>
		</g>
		<g>
			<path style="fill:#73466D;" d="M467.612,229.131l-39.396-2.445c-4.349-0.27-7.655-4.014-7.386-8.363l3.316-53.45
				c0.27-4.349,4.014-7.655,8.363-7.385l39.396,2.444L467.612,229.131z"/>
			<path style="fill:#855E80;" d="M469.35,229.238l-10.546-0.654l4.294-69.198l10.546,0.654c3.906,0.242,6.875,3.605,6.633,7.51
				l-3.416,55.055C476.618,226.511,473.255,229.481,469.35,229.238z"/>
			<g>
				
					<rect x="460.587" y="197.198" transform="matrix(-0.9981 -0.0619 0.0619 -0.9981 925.5313 428.929)" style="fill:#E5AC43;" width="17.652" height="5.848"/>
				
					<rect x="460.079" y="205.382" transform="matrix(-0.9981 -0.0619 0.0619 -0.9981 924.0099 445.2491)" style="fill:#E5AC43;" width="17.652" height="5.848"/>
			</g>
			
				<rect x="429.276" y="171.368" transform="matrix(-0.9981 -0.0619 0.0619 -0.9981 872.77 385.4369)" style="fill:#FFC355;" width="26.165" height="15.649"/>
		</g>
		<g>
			<path style="fill:#A5BECF;" d="M448.45,217.673c-15.927,4.848-21.043-4.636-14.69-13.389L448.45,217.673z"/>
			<path style="fill:#A5BECF;" d="M441.197,194.76c9.984-10.276,18.937,3.107,12.115,11.499L441.197,194.76z"/>
			<path style="fill:#AF714F;" d="M438.351,212.022l-17.965-12.783l0.861-13.461l-1.326-1.576c-0.601-0.714-0.903-1.632-0.843-2.562
				l0,0c0.16-2.497,2.744-4.084,5.043-3.095l13.322,5.726l-1.238-6.071c-0.326-1.596,0.635-3.174,2.203-3.617l0,0
				c1.394-0.394,2.876,0.226,3.573,1.495l4.021,7.314c1.977,3.596,2.214,7.894,0.647,11.686l-0.506,1.223l2.307,2.497
				L438.351,212.022z"/>
			<path style="fill:#A5BECF;" d="M438.346,212.023c14.11,19.384,38.941,23.872,56.491,24.375c1.965,0.064,3.841,0.06,5.595,0.032
				c8.645-0.145,14.476-1.121,14.476-1.121l-0.014-0.016l-2.985-10.533l-0.772-2.716l-6.036-21.256l-23.485-1.782l-35.473-2.703
				L438.346,212.023z"/>
			
				<line style="fill:none;stroke:#7CA0BA;stroke-width:2;stroke-miterlimit:10;" x1="502.829" y1="203.087" x2="481.883" y2="197.875"/>
			<path style="fill:none;stroke:#7CA0BA;stroke-width:2;stroke-miterlimit:10;" d="M514.893,235.293
				c-54.009,5.852-71.244-16.891-71.244-16.891l7.212-11.55"/>
		</g>
	</g>
	<g>
		<g>
			<path style="fill:#896257;" d="M592.397,163.631l9.934,4.909c12.161,6.01,20.741,17.445,23.084,30.806
				c2.987,17.036,3.643,40.943-8.912,61.353c-17.488,28.431-80.987-12.41-80.987-12.41l19.446-82.432l16.739-4.352
				C578.631,159.705,585.978,160.459,592.397,163.631z"/>
			<path style="fill:#593D3E;" d="M596.174,165.763L596.174,165.763c13.668,8.78,21.142,24.562,19.299,40.702
				c-1.699,14.879-5.013,33.294-11.475,48.314c-13.192,30.661-65.728-6.489-65.728-6.489l19.446-82.432l14.859-3.863
				C580.623,159.903,589.178,161.269,596.174,165.763z"/>
		</g>
		<path style="fill:#5C4240;" d="M571.791,91.591c22.945-4.838,36.303,3.518,35.651,23.938c-0.652,20.42,12.38,20.394,10.1,39.466
			h-82.36c1.69-16.163,11.565-10.277,12.365-29.565L571.791,91.591z"/>
		<g>
			<path style="fill:#5C4240;" d="M533.156,154.995h-5.304c0-10.303,4.774-14.889,10.818-20.696
				c6.355-6.105,15.058-14.465,23.766-34.109l4.848,2.15c-9.13,20.597-18.268,29.375-24.94,35.785
				C536.42,143.816,533.156,146.952,533.156,154.995z"/>
		</g>
		<g>
			<g>
				<polygon style="fill:#904C23;" points="598.048,131.007 581.184,142.002 579.64,129.83 				"/>
			</g>
			<g>
				<g>
					<rect x="559.581" y="118.66" style="fill:#F3CFB7;" width="23.529" height="45.7"/>
					<path style="fill:#EAAB82;" d="M557.99,125.429v11.13c0,10.187,6.895,18.435,15.39,18.435c3.696,0,7.082-1.558,9.73-4.158
						v-25.407H557.99z"/>
				</g>
				<path style="fill:#5C4240;" d="M584.677,92.561c-29.748-14.596-48.157,2.841-42.183,26.1L584.677,92.561z"/>
				<path style="fill:#F3CFB7;" d="M591.157,113.041l-1.298,3.643l-1.623,4.536l-4.348,12.179
					c-2.347,6.575-7.932,11.465-14.759,12.925l-2.186,0.467c-14.488,3.097-27.678-9.302-25.298-23.924
					c0.626-3.845,1.666-7.851,3.351-11.919c3.971-9.568,12.608-16.516,22.306-18.695l0.039-0.008l1.698-0.336l0.182-0.028
					c0.845-0.137,1.71-0.232,2.571-0.291c2.046-0.165,4.142-0.12,6.237,0.141l0,0C588.212,93.002,594.602,103.374,591.157,113.041z"
					/>
				<path d="M547.686,116.491c-0.489,2.527,0.444,4.833,2.083,5.15c1.639,0.317,3.364-1.475,3.852-4.002
					c0.489-2.527-0.444-4.832-2.083-5.149C549.899,112.172,548.175,113.964,547.686,116.491z"/>
				<g>
					<path style="fill:#F3CFB7;" d="M556.892,116.302c-2.245,4.221-5.349,4.839-7.448,4.669c-1.348-0.109-2.553,0.827-2.789,2.158
						l0,0c-0.311,1.757,0.442,3.531,1.921,4.528l5.233,3.528c2.996,1.33,6.486-0.209,7.526-3.317l3.525-10.538L556.892,116.302z"/>
					<g>
						<path style="fill:#EAAB82;" d="M551.838,130.283l0.395-0.587l-3.46-2.332c-1.362-0.917-2.057-2.556-1.771-4.173
							c0.205-1.159,1.242-1.962,2.412-1.868c2.277,0.184,5.477-0.509,7.789-4.856l-0.625-0.332
							c-2.132,4.007-5.042,4.649-7.108,4.483c-1.535-0.123-2.896,0.93-3.165,2.45c-0.335,1.893,0.479,3.81,2.072,4.883
							L551.838,130.283z"/>
					</g>
				</g>
				<path d="M565.055,120.946c-0.489,2.527,0.444,4.833,2.083,5.15c1.639,0.317,3.364-1.475,3.852-4.002
					c0.489-2.527-0.444-4.832-2.083-5.149C567.268,116.628,565.544,118.419,565.055,120.946z"/>
				<path style="fill:#5C4240;" d="M571.566,111.535c5.854,3.123,7.827,0.153,3.707-2.913
					C570.841,105.324,564.282,107.649,571.566,111.535z"/>
				<path style="fill:#5C4240;" d="M554.271,107.006c4.829-0.319,3.794-3.438-0.18-3.863
					C549.818,102.686,548.263,107.403,554.271,107.006z"/>
				<path style="fill:#F3CFB7;" d="M581.691,125.04c-0.544,5.709,3.644,10.778,9.353,11.321c5.709,0.544,10.778-3.643,11.322-9.353
					c0.544-5.709-3.643-10.778-9.352-11.322C587.304,115.144,582.235,119.331,581.691,125.04z"/>
				<g>
					<path style="fill:#212121;" d="M570.55,134.899c-0.344,0.619-0.696,1.21-1.065,1.757c-0.965,1.472-1.968,2.683-2.986,3.651
						c-5.6,5.306-11.697,3.238-14.779-1.863c-1.179-1.968-1.916-4.387-2.012-7.003c0,0,0.845-0.033,2.237-0.004
						C555.871,131.5,564.162,132.011,570.55,134.899z"/>
					<path style="fill:#FFFFFF;" d="M570.55,134.899c-0.344,0.619-0.696,1.21-1.065,1.757l-14.371-1.586
						c-1.023-0.113-1.908-0.763-2.322-1.705l-0.847-1.928C555.871,131.5,564.162,132.011,570.55,134.899z"/>
					<path style="fill:#B74B45;" d="M566.498,140.307c-5.6,5.306-11.697,3.238-14.779-1.863
						C555.751,136.825,560.802,136.608,566.498,140.307z"/>
				</g>
			</g>
		</g>
		<path style="fill:#5C4240;" d="M571.791,91.591c29.691,9.671,2.434,32.863,8.489,63.404h8.7
			C582.338,129.775,612.752,87.209,571.791,91.591z"/>
		<g>
			<polygon style="fill:#2C2C2E;" points="538.599,259.69 564.444,258.527 587.104,406.585 561.259,407.748 			"/>
			<g>
				<g>
					<polygon style="fill:#FFFFFF;" points="588.592,406.518 559.521,407.826 554.974,370.048 583.523,370.048 					"/>
				</g>
				
					<line style="fill:none;stroke:#AD523D;stroke-width:2;stroke-miterlimit:10;" x1="555.812" y1="377.016" x2="582.629" y2="377.016"/>
				<g>
					<path style="fill:#6C4D25;" d="M594.258,430.255h-66.023l0.58-5.893c0.195-1.922,0.696-3.708,1.464-5.321
						c1.628-3.433,4.475-6.076,8.196-7.484l1.666-0.629c1.634-0.618,3.121-1.431,4.455-2.415c1.148-0.847,2.178-1.808,3.065-2.895
						c1.945-2.334,3.278-5.195,3.865-8.422h37.097l3.633,21.845L594.258,430.255z"/>
					<line style="fill:none;stroke:#FFFFFF;stroke-miterlimit:10;" x1="563.194" y1="400.921" x2="550.153" y2="400.921"/>
					<line style="fill:none;stroke:#FFFFFF;stroke-miterlimit:10;" x1="560.713" y1="405.463" x2="547.671" y2="405.463"/>
					<g>
						<path style="fill:none;stroke:#FFFFFF;stroke-miterlimit:10;" d="M578.778,414.372c0.201,0.889-0.357,1.609-1.246,1.609
							c-0.889,0-1.772-0.72-1.973-1.609c-0.201-0.889,0.357-1.61,1.246-1.61C577.694,412.763,578.577,413.483,578.778,414.372z"/>
						<path style="fill:none;stroke:#FFFFFF;stroke-miterlimit:10;" d="M570.901,414.372c0.201,0.889-0.357,1.609-1.246,1.609
							c-0.889,0-1.772-0.72-1.973-1.609c-0.201-0.889,0.357-1.61,1.246-1.61C569.817,412.763,570.701,413.483,570.901,414.372z"/>
					</g>
					<path style="fill:#FFFFFF;" d="M594.258,430.255h-66.023l0.58-5.893c0.195-1.922,0.696-3.708,1.464-5.321h61.977
						L594.258,430.255z"/>
					
						<line style="fill:none;stroke:#8CACC2;stroke-width:2;stroke-miterlimit:10;" x1="551.521" y1="424.648" x2="593.04" y2="424.648"/>
					<path style="fill:#FFFFFF;" d="M565.289,430.255h-37.054l0.58-5.893c0.195-1.922,0.696-3.708,1.464-5.321
						c1.628-3.433,4.475-6.076,8.196-7.484l1.666-0.629c1.634-0.618,3.121-1.431,4.455-2.415
						C553.963,412.484,561.94,420.597,565.289,430.255z"/>
					<path style="fill:#6C4D25;" d="M551.528,397.196l-1.486-3.285c-1.046-2.313,0.215-4.514,2.586-4.514h3.307
						c2.611,0,5.344,1.327,7.254,3.522l3.72,4.276H551.528z"/>
				</g>
			</g>
		</g>
		<g>
			<polygon style="fill:#414141;" points="564.555,259.69 590.399,258.527 613.059,406.585 587.215,407.748 			"/>
			<g>
				<polygon style="fill:#FFFFFF;" points="614.548,406.518 585.477,407.826 580.737,370.502 609.478,370.048 				"/>
				
					<line style="fill:none;stroke:#AD523D;stroke-width:2;stroke-miterlimit:10;" x1="581.38" y1="378.564" x2="610.595" y2="378.341"/>
				<g>
					<path style="fill:#896235;" d="M620.214,430.255h-66.022l0.58-5.893c0.195-1.922,0.696-3.708,1.464-5.321
						c1.628-3.433,4.475-6.076,8.197-7.484l1.666-0.629c1.634-0.618,3.121-1.431,4.455-2.415c1.148-0.847,2.178-1.808,3.065-2.895
						c1.945-2.334,3.278-5.195,3.865-8.422h37.097l3.633,21.845L620.214,430.255z"/>
					<line style="fill:none;stroke:#FFFFFF;stroke-miterlimit:10;" x1="589.15" y1="400.921" x2="576.108" y2="400.921"/>
					<line style="fill:none;stroke:#FFFFFF;stroke-miterlimit:10;" x1="586.669" y1="405.463" x2="573.627" y2="405.463"/>
					<g>
						<path style="fill:none;stroke:#FFFFFF;stroke-miterlimit:10;" d="M604.734,414.372c0.201,0.889-0.357,1.609-1.246,1.609
							c-0.889,0-1.772-0.72-1.973-1.609c-0.201-0.889,0.357-1.61,1.246-1.61C603.65,412.763,604.533,413.483,604.734,414.372z"/>
						<path style="fill:none;stroke:#FFFFFF;stroke-miterlimit:10;" d="M596.857,414.372c0.201,0.889-0.357,1.609-1.246,1.609
							s-1.772-0.72-1.973-1.609c-0.201-0.889,0.357-1.61,1.246-1.61C595.773,412.763,596.656,413.483,596.857,414.372z"/>
					</g>
					<path style="fill:#FFFFFF;" d="M620.214,430.255h-66.022l0.58-5.893c0.195-1.922,0.696-3.708,1.464-5.321h61.977
						L620.214,430.255z"/>
					
						<line style="fill:none;stroke:#AD523D;stroke-width:2;stroke-miterlimit:10;" x1="577.477" y1="424.648" x2="618.996" y2="424.648"/>
					<path style="fill:#FFFFFF;" d="M591.245,430.255h-37.054l0.58-5.893c0.195-1.922,0.696-3.708,1.464-5.321
						c1.628-3.433,4.475-6.076,8.197-7.484l1.666-0.629c1.634-0.618,3.121-1.431,4.455-2.415
						C579.918,412.484,587.896,420.597,591.245,430.255z"/>
					<path style="fill:#896235;" d="M577.483,397.196l-1.486-3.285c-1.046-2.313,0.215-4.514,2.586-4.514h3.307
						c2.611,0,5.344,1.327,7.253,3.522l3.72,4.276H577.483z"/>
				</g>
			</g>
		</g>
		<polygon style="fill:#E5AC43;" points="519.247,228.39 504.305,278.935 535.4,278.935 553.751,231.675 		"/>
		<path style="fill:#7C8D99;" d="M538.594,231.675c0,0-15.414,26.245-0.767,94.757h84.683
			c-13.288-67.905-38.264-93.634-38.264-93.634L538.594,231.675z"/>
		
			<line style="fill:none;stroke:#6A7D88;stroke-width:2;stroke-miterlimit:10;" x1="541.355" y1="292.026" x2="584.975" y2="300.967"/>
		<path style="fill:none;stroke:#6A7D88;stroke-width:2;stroke-miterlimit:10;" d="M580.457,235.295
			c21.314,36.639,27.58,85.226,27.58,85.226"/>
		<polygon style="fill:#A9BEC4;" points="622.15,319.604 534.728,320.521 535.939,326.432 623.438,326.432 		"/>
		<path style="fill:#E5AC43;" d="M561.081,159.273c-30.577-0.504-38.66,44.121-41.833,69.117l25.023,7.195L561.081,159.273z"/>
		<path style="fill:#FFC355;" d="M591.542,237.195h-60.654l8.115-61.202c1.476-9.901,9.981-17.221,19.997-17.221h26.68
			c0.088,0,25.805,0.018,28.121,22.357C615.005,192.736,609.886,210.382,591.542,237.195z"/>
		<g>
			<defs>
				<path id="SVGID_1_" d="M554.54,158.771h34.896c0,0-7.725,12.631-20.458,12.631C556.245,171.402,554.54,158.771,554.54,158.771z"
					/>
			</defs>
			<clipPath id="SVGID_00000147913952050163217250000016921274655424602258_">
				<use xlink:href="#SVGID_1_"  style="overflow:visible;"/>
			</clipPath>
			<g style="clip-path:url(#SVGID_00000147913952050163217250000016921274655424602258_);">
				<line style="fill:none;stroke:#E1A932;stroke-miterlimit:10;" x1="552.679" y1="156.317" x2="552.679" y2="174.066"/>
				<line style="fill:none;stroke:#E1A932;stroke-miterlimit:10;" x1="555.102" y1="156.317" x2="555.102" y2="174.066"/>
				<line style="fill:none;stroke:#E1A932;stroke-miterlimit:10;" x1="557.524" y1="156.317" x2="557.524" y2="174.066"/>
				<line style="fill:none;stroke:#E1A932;stroke-miterlimit:10;" x1="559.946" y1="156.317" x2="559.946" y2="174.066"/>
				<line style="fill:none;stroke:#E1A932;stroke-miterlimit:10;" x1="562.369" y1="156.317" x2="562.369" y2="174.066"/>
				<line style="fill:none;stroke:#E1A932;stroke-miterlimit:10;" x1="564.791" y1="156.317" x2="564.791" y2="174.066"/>
				<line style="fill:none;stroke:#E1A932;stroke-miterlimit:10;" x1="567.214" y1="156.317" x2="567.214" y2="174.066"/>
				<line style="fill:none;stroke:#E1A932;stroke-miterlimit:10;" x1="569.636" y1="156.317" x2="569.636" y2="174.066"/>
				<line style="fill:none;stroke:#E1A932;stroke-miterlimit:10;" x1="572.059" y1="156.317" x2="572.059" y2="174.066"/>
				<line style="fill:none;stroke:#E1A932;stroke-miterlimit:10;" x1="574.481" y1="156.317" x2="574.481" y2="174.066"/>
				<line style="fill:none;stroke:#E1A932;stroke-miterlimit:10;" x1="576.904" y1="156.317" x2="576.904" y2="174.066"/>
				<line style="fill:none;stroke:#E1A932;stroke-miterlimit:10;" x1="579.326" y1="156.317" x2="579.326" y2="174.066"/>
				<line style="fill:none;stroke:#E1A932;stroke-miterlimit:10;" x1="581.748" y1="156.317" x2="581.748" y2="174.066"/>
				<line style="fill:none;stroke:#E1A932;stroke-miterlimit:10;" x1="584.171" y1="156.317" x2="584.171" y2="174.066"/>
			</g>
		</g>
		<path style="fill:none;stroke:#E1A932;stroke-miterlimit:10;" d="M554.014,158.322c2.925,16.481,23.4,18.394,34.932,0.619"/>
		<path style="fill:#E5AC43;" d="M591.542,237.195h-34.337l31.602-52.806l20.312,2.935
			C610.321,198.93,609.886,210.382,591.542,237.195z"/>
		<path style="fill:#5C4240;" d="M566.408,89.333c-9.203,16.194,23.045,22.513,23.045,22.513S598.048,92.793,566.408,89.333z"/>
		<g>
			<g>
				<g>
					<path style="fill:#E5AC43;" d="M562.422,260.749v18.799h-78.859c-2.093,0-3.875-1.584-4.542-3.8
						c-0.186-0.605-0.286-1.26-0.286-1.945v-7.309c0-0.724,0.114-1.416,0.32-2.054c0.692-2.157,2.452-3.691,4.509-3.691H562.422z"/>
					<path style="fill:#896237;" d="M520.579,264.44v11.308h-41.558c-0.186-0.605-0.286-1.26-0.286-1.945v-7.309
						c0-0.724,0.114-1.416,0.32-2.054H520.579z"/>
					<path style="fill:#896237;" d="M523.824,260.749h37.2v18.801h-37.2c-4.767,0-8.631-3.864-8.631-8.631v-1.539
						C515.193,264.613,519.057,260.749,523.824,260.749z"/>
					<path style="fill:#896237;" d="M563.371,260.749h-7.407v2.817h7.407c0.654,0,1.184-0.631,1.184-1.408l0,0
						C564.555,261.379,564.025,260.749,563.371,260.749z"/>
					<path style="fill:#896237;" d="M563.262,276.731h-7.297v2.817h7.297c0.714,0,1.293-0.579,1.293-1.293v-0.231
						C564.555,277.31,563.976,276.731,563.262,276.731z"/>
					<g>
						<path style="fill:#D5D7E3;" d="M524.275,263.567h38.148v13.164h-38.148c-3.337,0-6.043-2.706-6.043-6.043v-1.078
							C518.232,266.273,520.937,263.567,524.275,263.567z"/>
						<path style="fill:#FFFFFF;" d="M527.758,265.297h34.664v11.434H523.09c-1.61,0-2.915-1.305-2.915-2.915v-0.936
							C520.175,268.692,523.57,265.297,527.758,265.297z"/>
						<g>
							<defs>
								<path id="SVGID_00000036232263176566181170000015270432176751711130_" d="M527.888,265.297h34.535v11.434h-39.462
									c-1.538,0-2.786-1.247-2.786-2.785v-0.936C520.175,268.75,523.628,265.297,527.888,265.297z"/>
							</defs>
							<clipPath id="SVGID_00000149352222212268414750000006887794484368645263_">
								<use xlink:href="#SVGID_00000036232263176566181170000015270432176751711130_"  style="overflow:visible;"/>
							</clipPath>
							<g style="clip-path:url(#SVGID_00000149352222212268414750000006887794484368645263_);">
								<line style="fill:none;stroke:#F0F1F5;stroke-miterlimit:10;" x1="519.828" y1="266.783" x2="562.422" y2="266.783"/>
								<line style="fill:none;stroke:#F0F1F5;stroke-miterlimit:10;" x1="518.377" y1="269.404" x2="562.422" y2="269.404"/>
								<line style="fill:none;stroke:#F0F1F5;stroke-miterlimit:10;" x1="518.377" y1="272.025" x2="562.422" y2="272.025"/>
								<line style="fill:none;stroke:#F0F1F5;stroke-miterlimit:10;" x1="518.377" y1="274.647" x2="562.422" y2="274.647"/>
							</g>
						</g>
						<polyline style="fill:#DED7D2;" points="532.01,266.783 532.01,275.748 528.927,273.934 525.844,275.748 525.844,266.783 
													"/>
						<polygon style="fill:#748456;" points="534.193,273.934 530.445,271.959 528.121,273.934 525.844,266.783 531.916,266.783 
													"/>
					</g>
					<line style="fill:#F1F4F6;" x1="526.566" y1="266.224" x2="531.23" y2="266.224"/>
					<path style="fill:#E5AC43;" d="M515.45,279.546h-4.785c-2.093,0-3.872-1.581-4.543-3.798h4.785
						C511.579,277.966,513.357,279.546,515.45,279.546z"/>
					<path style="fill:#E5AC43;" d="M510.941,264.439h-4.785c0.698-2.158,2.451-3.691,4.509-3.691h4.785
						C513.392,260.748,511.639,262.281,510.941,264.439z"/>
					<path style="fill:#E5AC43;" d="M508.521,279.546h-4.785c-2.093,0-3.872-1.581-4.543-3.798h4.785
						C504.649,277.966,506.428,279.546,508.521,279.546z"/>
					<path style="fill:#E5AC43;" d="M504.012,264.439h-4.785c0.698-2.158,2.45-3.691,4.509-3.691h4.785
						C506.462,260.748,504.71,262.281,504.012,264.439z"/>
				</g>
				<path style="fill:#FFC355;" d="M510.914,273.801c0,0.685,0.099,1.339,0.284,1.947h-4.785c-0.185-0.607-0.284-1.262-0.284-1.947
					v-7.308c0-0.723,0.112-1.417,0.319-2.054h4.785c-0.207,0.637-0.319,1.331-0.319,2.054V273.801z"/>
				<path style="fill:#FFC355;" d="M503.985,273.801c0,0.685,0.099,1.339,0.284,1.947h-4.785c-0.185-0.607-0.284-1.262-0.284-1.947
					v-7.308c0-0.723,0.112-1.417,0.319-2.054h4.785c-0.207,0.637-0.319,1.331-0.319,2.054V273.801z"/>
				<path style="fill:#E5AC43;" d="M491.238,279.546h-4.785c-2.093,0-3.872-1.581-4.543-3.798h4.785
					C487.366,277.966,489.145,279.546,491.238,279.546z"/>
				<path style="fill:#E5AC43;" d="M486.729,264.439h-4.785c0.698-2.158,2.451-3.691,4.509-3.691h4.785
					C489.179,260.748,487.426,262.281,486.729,264.439z"/>
				<path style="fill:#FFC355;" d="M486.701,273.801c0,0.685,0.099,1.339,0.284,1.947h-4.785c-0.185-0.607-0.284-1.262-0.284-1.947
					v-7.308c0-0.723,0.112-1.417,0.319-2.054h4.785c-0.207,0.637-0.319,1.331-0.319,2.054V273.801z"/>
			</g>
			<g>
				<g>
					<path style="fill:#73466D;" d="M553.064,244.765v15.982h-67.042c-1.779,0-3.294-1.347-3.861-3.231
						c-0.158-0.515-0.243-1.071-0.243-1.653v-6.214c0-0.616,0.097-1.203,0.272-1.746c0.589-1.833,2.084-3.138,3.833-3.138H553.064z"
						/>
					<path style="fill:#855E80;" d="M517.49,247.903v9.613h-35.33c-0.158-0.515-0.243-1.071-0.243-1.653v-6.214
						c0-0.616,0.097-1.203,0.272-1.746H517.49z"/>
					<path style="fill:#855E80;" d="M520.249,244.764h31.626v15.983h-31.626c-4.052,0-7.337-3.285-7.337-7.337v-1.309
						C512.912,248.049,516.197,244.764,520.249,244.764z"/>
					<path style="fill:#7B8B99;" d="M553.87,244.764h-6.297v2.395h6.297c0.556,0,1.006-0.536,1.006-1.197l0,0
						C554.877,245.301,554.426,244.764,553.87,244.764z"/>
					<path style="fill:#7B8B99;" d="M553.777,258.352h-6.204v2.395h6.204c0.607,0,1.099-0.492,1.099-1.099v-0.196
						C554.877,258.844,554.384,258.352,553.777,258.352z"/>
					<g>
						<path style="fill:#D5D7E3;" d="M520.632,247.161h32.431v11.191h-32.431c-2.837,0-5.137-2.3-5.137-5.138v-0.916
							C515.495,249.461,517.795,247.161,520.632,247.161z"/>
						<path style="fill:#FFFFFF;" d="M523.594,248.631h29.47v9.721h-33.438c-1.369,0-2.478-1.109-2.478-2.478v-0.796
							C517.147,251.517,520.034,248.631,523.594,248.631z"/>
						<g>
							<defs>
								<path id="SVGID_00000029032498391056301430000014621424644468675249_" d="M523.704,248.631h29.36v9.721h-33.548
									c-1.308,0-2.368-1.06-2.368-2.368v-0.796C517.147,251.567,520.083,248.631,523.704,248.631z"/>
							</defs>
							<clipPath id="SVGID_00000163756501065228557960000001060694529314573978_">
								<use xlink:href="#SVGID_00000029032498391056301430000014621424644468675249_"  style="overflow:visible;"/>
							</clipPath>
							<g style="clip-path:url(#SVGID_00000163756501065228557960000001060694529314573978_);">
								<line style="fill:none;stroke:#F0F1F5;stroke-miterlimit:10;" x1="516.852" y1="249.895" x2="553.064" y2="249.895"/>
								<line style="fill:none;stroke:#F0F1F5;stroke-miterlimit:10;" x1="515.619" y1="252.123" x2="553.064" y2="252.123"/>
								<line style="fill:none;stroke:#F0F1F5;stroke-miterlimit:10;" x1="515.619" y1="254.351" x2="553.064" y2="254.351"/>
								<line style="fill:none;stroke:#F0F1F5;stroke-miterlimit:10;" x1="515.619" y1="256.58" x2="553.064" y2="256.58"/>
							</g>
						</g>
						<polyline style="fill:#DED7D2;" points="527.209,249.895 527.209,257.516 524.588,255.974 521.967,257.516 521.967,249.895 
													"/>
						<polygon style="fill:#DAA03D;" points="529.064,255.974 525.878,254.295 523.902,255.974 521.967,249.895 527.128,249.895 
													"/>
					</g>
					<line style="fill:#F1F4F6;" x1="522.581" y1="249.419" x2="526.545" y2="249.419"/>
					<path style="fill:#E5AC43;" d="M502.222,260.745h-4.068c-1.779,0-3.292-1.344-3.863-3.229h4.068
						C498.931,259.401,500.443,260.745,502.222,260.745z"/>
					<path style="fill:#E5AC43;" d="M498.389,247.902h-4.068c0.593-1.834,2.083-3.138,3.833-3.138h4.068
						C500.472,244.764,498.982,246.067,498.389,247.902z"/>
				</g>
				<path style="fill:#FFC355;" d="M498.409,255.861c0,0.582,0.084,1.139,0.242,1.655h-4.068c-0.157-0.516-0.242-1.073-0.242-1.655
					v-6.213c0-0.615,0.095-1.204,0.271-1.746h4.068c-0.176,0.542-0.271,1.131-0.271,1.746V255.861z"/>
				<path style="fill:#E5AC43;" d="M496.331,260.745h-4.068c-1.779,0-3.291-1.344-3.863-3.229h4.068
					C493.04,259.401,494.552,260.745,496.331,260.745z"/>
				<path style="fill:#E5AC43;" d="M492.498,247.902h-4.068c0.593-1.834,2.083-3.138,3.833-3.138h4.068
					C494.581,244.764,493.091,246.067,492.498,247.902z"/>
				<path style="fill:#FFC355;" d="M492.518,255.861c0,0.582,0.084,1.139,0.242,1.655h-4.068c-0.157-0.516-0.242-1.073-0.242-1.655
					v-6.213c0-0.615,0.095-1.204,0.271-1.746h4.068c-0.176,0.542-0.271,1.131-0.271,1.746V255.861z"/>
			</g>
			<g>
				<g>
					<path style="fill:#62753D;" d="M486.887,230.834v13.897h58.297c1.547,0,2.865-1.171,3.358-2.809
						c0.138-0.447,0.212-0.931,0.212-1.438v-5.404c0-0.535-0.084-1.046-0.236-1.518c-0.512-1.594-1.813-2.729-3.333-2.729H486.887z"
						/>
					<path style="fill:#748456;" d="M517.821,233.563v8.359h30.722c0.138-0.447,0.212-0.931,0.212-1.438v-5.404
						c0-0.535-0.084-1.046-0.236-1.518H517.821z"/>
					<path style="fill:#748456;" d="M515.422,230.834h-27.501v13.899h27.501c3.524,0,6.38-2.857,6.38-6.38v-1.138
						C521.802,233.691,518.946,230.834,515.422,230.834z"/>
					<path style="fill:#748456;" d="M486.186,230.834h5.475v2.082h-5.475c-0.483,0-0.875-0.466-0.875-1.041l0,0
						C485.311,231.3,485.703,230.834,486.186,230.834z"/>
					<path style="fill:#748456;" d="M486.267,242.649h5.395v2.082h-5.395c-0.528,0-0.956-0.428-0.956-0.956v-0.171
						C485.311,243.077,485.739,242.649,486.267,242.649z"/>
					<g>
						<path style="fill:#D5D7E3;" d="M515.089,232.918h-28.201v9.731h28.201c2.467,0,4.467-2,4.467-4.467v-0.797
							C519.556,234.918,517.556,232.918,515.089,232.918z"/>
						<path style="fill:#FFFFFF;" d="M512.513,234.196h-25.626v8.453h29.077c1.19,0,2.155-0.965,2.155-2.155v-0.692
							C518.119,236.706,515.609,234.196,512.513,234.196z"/>
						<g>
							<defs>
								<path id="SVGID_00000137826401507653413650000001021531089275010475_" d="M512.418,234.196h-25.53v8.453h29.172
									c1.137,0,2.059-0.922,2.059-2.059v-0.692C518.119,236.749,515.566,234.196,512.418,234.196z"/>
							</defs>
							<clipPath id="SVGID_00000040559497219999705240000015028843773081482661_">
								<use xlink:href="#SVGID_00000137826401507653413650000001021531089275010475_"  style="overflow:visible;"/>
							</clipPath>
							<g style="clip-path:url(#SVGID_00000040559497219999705240000015028843773081482661_);">
								<line style="fill:none;stroke:#F0F1F5;stroke-miterlimit:10;" x1="518.375" y1="235.295" x2="486.887" y2="235.295"/>
								<line style="fill:none;stroke:#F0F1F5;stroke-miterlimit:10;" x1="519.448" y1="237.233" x2="486.887" y2="237.233"/>
								<line style="fill:none;stroke:#F0F1F5;stroke-miterlimit:10;" x1="519.448" y1="239.171" x2="486.887" y2="239.171"/>
								<line style="fill:none;stroke:#F0F1F5;stroke-miterlimit:10;" x1="519.448" y1="241.108" x2="486.887" y2="241.108"/>
							</g>
						</g>
						<polyline style="fill:#DED7D2;" points="509.37,235.295 509.37,241.923 511.649,240.582 513.928,241.923 513.928,235.295 
													"/>
						<polygon style="fill:#B74B45;" points="507.757,240.582 510.527,239.122 512.245,240.582 513.928,235.295 509.44,235.295 
													"/>
					</g>
					<line style="fill:#F1F4F6;" x1="513.394" y1="234.882" x2="509.947" y2="234.882"/>
					<path style="fill:#DAA03D;" d="M521.802,244.73h3.537c1.547,0,2.862-1.168,3.359-2.808h-3.537
						C524.664,243.562,523.349,244.73,521.802,244.73z"/>
					<path style="fill:#DAA03D;" d="M525.135,233.562h3.537c-0.516-1.595-1.811-2.729-3.333-2.729h-3.537
						C523.324,230.834,524.62,231.967,525.135,233.562z"/>
				</g>
				<path style="fill:#E2B056;" d="M525.371,240.483c0,0.506-0.073,0.99-0.21,1.439h3.537c0.137-0.449,0.21-0.933,0.21-1.439v-5.403
					c0-0.535-0.083-1.047-0.236-1.519h-3.537c0.153,0.471,0.236,0.984,0.236,1.519V240.483z"/>
				<path style="fill:#DAA03D;" d="M539.006,244.73h3.537c1.547,0,2.862-1.168,3.359-2.808h-3.537
					C541.868,243.562,540.554,244.73,539.006,244.73z"/>
				<path style="fill:#DAA03D;" d="M542.34,233.562h3.537c-0.516-1.595-1.811-2.729-3.333-2.729h-3.537
					C540.528,230.834,541.824,231.967,542.34,233.562z"/>
				<path style="fill:#E2B056;" d="M542.575,240.483c0,0.506-0.073,0.99-0.21,1.439h3.537c0.137-0.449,0.21-0.933,0.21-1.439v-5.403
					c0-0.535-0.083-1.047-0.236-1.519h-3.537c0.153,0.471,0.236,0.984,0.236,1.519V240.483z"/>
			</g>
		</g>
		<g>
			<path style="fill:#896257;" d="M595.467,231.675c0,0-17.149-34.644-13.246-71.027c0.318-2.964,3.007-5.102,5.972-4.794
				l6.642,0.689c2.896,0.301,5.04,2.829,4.862,5.735L595.467,231.675z"/>
			<g>
				<path style="fill:#FFC355;" d="M599.708,161.919l-23.956,61.373c0.336,1.192,28.603,17.836,28.603,17.836l0.007,0.017
					C615.051,227.242,626.605,169.101,599.708,161.919z"/>
			</g>
			<g>
				<path style="fill:#F3CFB7;" d="M555.51,270.779l-13.345,8.81h-26.84c-1.087-15.214,23.423-19.302,23.423-19.302L555.51,270.779z
					"/>
				<polygon style="fill:#EAAB82;" points="515.325,279.59 523.169,273.73 521.031,279.59 				"/>
			</g>
			<path style="fill:#FFC355;" d="M604.361,241.146c-14.648,14.162-27.936,22.658-37.961,27.697
				c-11.51,5.799-18.715,7.028-18.715,7.028l-19.449-13.809l13.729-11.201l33.788-27.573L604.361,241.146z"/>
			<g>
				<defs>
					<path id="SVGID_00000045599484757404984180000004900873586964176277_" d="M566.4,268.843
						c-11.51,5.799-18.715,7.028-18.715,7.028l-19.449-13.809l13.729-11.201L566.4,268.843z"/>
				</defs>
				<clipPath id="SVGID_00000001636764029701485330000017644953193909633154_">
					<use xlink:href="#SVGID_00000045599484757404984180000004900873586964176277_"  style="overflow:visible;"/>
				</clipPath>
				<g style="clip-path:url(#SVGID_00000001636764029701485330000017644953193909633154_);">
					<line style="fill:none;stroke:#E1A932;stroke-miterlimit:10;" x1="527.645" y1="263.664" x2="545.284" y2="250.921"/>
					<line style="fill:none;stroke:#E1A932;stroke-miterlimit:10;" x1="529.71" y1="265.225" x2="547.348" y2="252.482"/>
					<line style="fill:none;stroke:#E1A932;stroke-miterlimit:10;" x1="531.775" y1="266.786" x2="549.413" y2="254.043"/>
					<line style="fill:none;stroke:#E1A932;stroke-miterlimit:10;" x1="533.839" y1="268.347" x2="551.478" y2="255.604"/>
					<line style="fill:none;stroke:#E1A932;stroke-miterlimit:10;" x1="535.904" y1="269.907" x2="553.542" y2="257.164"/>
					<line style="fill:none;stroke:#E1A932;stroke-miterlimit:10;" x1="537.969" y1="271.468" x2="555.607" y2="258.725"/>
					<line style="fill:none;stroke:#E1A932;stroke-miterlimit:10;" x1="540.033" y1="273.029" x2="557.672" y2="260.286"/>
					<line style="fill:none;stroke:#E1A932;stroke-miterlimit:10;" x1="542.098" y1="274.59" x2="559.737" y2="261.847"/>
					<line style="fill:none;stroke:#E1A932;stroke-miterlimit:10;" x1="544.163" y1="276.15" x2="561.801" y2="263.407"/>
					<line style="fill:none;stroke:#E1A932;stroke-miterlimit:10;" x1="546.227" y1="277.711" x2="563.866" y2="264.968"/>
					<line style="fill:none;stroke:#E1A932;stroke-miterlimit:10;" x1="548.292" y1="279.272" x2="565.931" y2="266.529"/>
				</g>
			</g>
			<line style="fill:none;stroke:#E1A932;stroke-miterlimit:10;" x1="541.965" y1="250.862" x2="566.4" y2="268.843"/>
		</g>
		<path style="fill:#896257;" d="M533.288,218.069c-5.198-32.188,0.556-48.58,4.611-55.639c1.583-2.755,4.357-4.615,7.497-5.103
			l4.305-0.669c2.348-0.365,4.717,0.523,6.246,2.343l0,0C542.811,171.671,533.288,218.069,533.288,218.069z"/>
	</g>
	<g>
		<path style="fill:#855E80;" d="M201.889,123.614l-41.571,14.785c0,0-26.738,48.05-7.495,89.551
			c15.056,32.472,87.803-3.054,87.803-3.054l-10.366-90.225L201.889,123.614z"/>
		<path style="fill:#362936;" d="M201.889,123.614l-36.728,17.911c0,0-5.546,47.726,4.655,82.034
			c10.201,34.308,70.81,1.337,70.81,1.337l-10.366-90.225L201.889,123.614z"/>
		<polygon style="fill:#CA9178;" points="301.085,196.021 301.071,196.047 301.045,196.033 290.052,193.38 252.067,184.18 
			266.717,150.633 294.431,161.247 307.861,166.394 303.315,186.23 		"/>
		<path style="fill:#CA9178;" d="M310.745,183.166c-4.85,8.439-9.296,12.5-9.668,12.839c-0.016,0.014-0.031,0.028-0.031,0.028
			l-6.067-7.201l-16.093-19.109l1.315-2.313l26.77-46.927l16.675,2.235C324.7,152.089,317.347,171.679,310.745,183.166z"/>
		<g>
			<polygon style="fill:#A54440;" points="285.457,156.687 270.975,193.933 218.677,176.914 225.88,132.551 			"/>
			<polyline style="fill:#752B26;" points="238.409,183.335 241.447,155.515 258.864,189.991 			"/>
			<polygon style="fill:#F6F2E9;" points="270.975,193.933 285.457,156.687 277.549,153.483 258.864,189.991 			"/>
		</g>
		<path style="fill:none;stroke:#232321;stroke-width:4;stroke-miterlimit:10;" d="M245.082,138.628
			c13.986,15.96,17.355,37.471-0.619,46.597"/>
		<polygon style="fill:#585C5E;" points="202.254,388.733 233.225,396.201 246.861,354.771 215.308,350.595 		"/>
		<line style="fill:none;stroke:#A26B63;stroke-miterlimit:10;" x1="207.572" y1="373.702" x2="239.931" y2="378.048"/>
		<g>
			<path style="fill:#6A7D88;" d="M191.214,413.062l70.956,13.768l0.606-6.455c0.191-2.107,0.025-4.13-0.464-6.024
				c-1.033-4.029-3.542-7.464-7.248-9.753l-1.659-1.023c-1.627-1.005-3.056-2.188-4.285-3.524c-1.057-1.149-1.963-2.397-2.69-3.75
				c-1.603-2.915-2.439-6.267-2.398-9.858l-39.869-7.736l-8.46,22.72L191.214,413.062z"/>
			<line style="fill:none;stroke:#FFFFFF;stroke-miterlimit:10;" x1="230.717" y1="388.014" x2="244.733" y2="390.734"/>
			<line style="fill:none;stroke:#FFFFFF;stroke-miterlimit:10;" x1="232.436" y1="393.413" x2="246.453" y2="396.133"/>
			<g>
				<path style="fill:none;stroke:#FFFFFF;stroke-miterlimit:10;" d="M211.164,399.221c-0.401,0.913,0.048,1.804,1.003,1.99
					c0.955,0.185,2.055-0.405,2.456-1.318c0.401-0.913-0.048-1.805-1.004-1.99C212.665,397.717,211.565,398.307,211.164,399.221z"/>
				<path style="fill:none;stroke:#FFFFFF;stroke-miterlimit:10;" d="M219.629,400.863c-0.401,0.914,0.048,1.804,1.003,1.99
					c0.955,0.185,2.055-0.405,2.456-1.318c0.401-0.913-0.048-1.804-1.003-1.99C221.13,399.359,220.03,399.95,219.629,400.863z"/>
			</g>
			<path style="fill:#FFFFFF;" d="M191.214,413.062l70.956,13.768l0.606-6.455c0.191-2.107,0.025-4.13-0.464-6.024l-66.608-12.925
				L191.214,413.062z"/>
			<line style="fill:none;stroke:#A26B63;stroke-miterlimit:10;" x1="238.314" y1="415.948" x2="193.692" y2="407.29"/>
			<path style="fill:#FFFFFF;" d="M222.348,419.103l39.822,7.727l0.606-6.455c0.191-2.107,0.025-4.13-0.464-6.024
				c-1.033-4.029-3.542-7.464-7.248-9.753l-1.659-1.023c-1.627-1.005-3.056-2.188-4.285-3.524
				C238.227,402.366,227.961,409.422,222.348,419.103z"/>
			<path style="fill:#6A7D88;" d="M244.032,386.443l2.282-3.22c1.607-2.267,0.71-4.896-1.838-5.39l-3.554-0.69
				c-2.806-0.545-6.02,0.311-8.53,2.273l-4.89,3.82L244.032,386.443z"/>
		</g>
		<g>
			<g>
				<polygon style="fill:#585C5E;" points="109.352,336.505 127.881,362.421 165.307,340.022 144.183,316.213 				"/>
				<line style="fill:none;stroke:#A26B63;stroke-miterlimit:10;" x1="122.16" y1="329.099" x2="143.781" y2="353.562"/>
				<g>
					<path style="fill:#6A7D88;" d="M85.082,347.674l44.637,56.849l4.682-4.484c1.524-1.468,2.722-3.106,3.592-4.859
						c1.856-3.722,2.207-7.961,0.903-12.117l-0.584-1.86c-0.573-1.825-0.879-3.655-0.933-5.469
						c-0.046-1.561,0.085-3.098,0.421-4.596c0.696-3.253,2.257-6.335,4.639-9.022l-25.08-31.943l-21.266,11.642L85.082,347.674z"/>
					<line style="fill:none;stroke:#FFFFFF;stroke-miterlimit:10;" x1="131.343" y1="354.59" x2="140.16" y2="365.82"/>
					<line style="fill:none;stroke:#FFFFFF;stroke-miterlimit:10;" x1="129.109" y1="359.797" x2="137.927" y2="371.027"/>
					<g>
						<path style="fill:none;stroke:#FFFFFF;stroke-miterlimit:10;" d="M109.225,350.265c-0.901,0.428-1.145,1.396-0.544,2.161
							c0.601,0.765,1.819,1.039,2.72,0.611c0.901-0.428,1.144-1.396,0.543-2.161C111.344,350.111,110.126,349.837,109.225,350.265z"
							/>
						<path style="fill:none;stroke:#FFFFFF;stroke-miterlimit:10;" d="M114.55,357.047c-0.901,0.428-1.145,1.396-0.544,2.161
							c0.601,0.765,1.819,1.039,2.72,0.611c0.901-0.428,1.145-1.396,0.544-2.161C116.669,356.893,115.451,356.62,114.55,357.047z"/>
					</g>
					<path style="fill:#FFFFFF;" d="M85.082,347.674l44.637,56.849l4.682-4.484c1.524-1.468,2.722-3.106,3.592-4.859l-41.901-53.366
						L85.082,347.674z"/>
					<line style="fill:none;stroke:#A26B63;stroke-miterlimit:10;" x1="118.804" y1="380.682" x2="90.734" y2="344.932"/>
					<path style="fill:#FFFFFF;" d="M104.668,372.618l25.051,31.906l4.682-4.484c1.524-1.468,2.722-3.106,3.592-4.859
						c1.856-3.722,2.207-7.961,0.903-12.117l-0.584-1.86c-0.573-1.825-0.879-3.655-0.933-5.469
						C127.628,370.356,115.248,368.972,104.668,372.618z"/>
					<path style="fill:#6A7D88;" d="M142.438,362.117l3.833-0.941c2.699-0.663,3.741-3.237,2.138-5.279l-2.236-2.848
						c-1.765-2.248-4.755-3.704-7.937-3.865l-6.197-0.313L142.438,362.117z"/>
				</g>
			</g>
		</g>
		<path style="fill:#A5BECF;" d="M221.41,218.153c0,0-10.88,77.667-11.308,92.71c-0.24,8.428-51.781,47.6-51.781,47.6
			l-34.918-33.234l55.084-32.766l7.299-65.437L221.41,218.153z"/>
		<path style="fill:#A5BECF;" d="M242.091,211.075c0,0,23.653,82.187,24.711,92.017c1.059,9.831-15.372,72.253-15.372,72.253
			l-43.242-7.039l21.299-67.513l-18.014-86.617L242.091,211.075z"/>
		<polygon style="fill:#A5BECF;" points="246.601,222.59 249.17,256.882 183.419,260.036 185.786,227.025 		"/>
		<polygon style="fill:#8CACC2;" points="250.061,239.128 182.489,256.588 185.786,227.025 246.399,226.134 		"/>
		<path style="fill:none;stroke:#8CACC2;stroke-width:2;stroke-miterlimit:10;" d="M224.657,230.719l-0.522,20.481
			c0,0-5.692-2.547-6.649-8.116"/>
		<polygon style="fill:#8CACC2;" points="220.64,258.25 230.185,257.792 239.622,300.781 221.689,370.504 208.188,368.307 
			229.488,300.794 		"/>
		<polyline style="fill:none;stroke:#8CACC2;stroke-width:2;stroke-miterlimit:10;" points="191.329,245.381 185.707,299.943 
			178.439,299.63 181.305,306.128 175.978,305.9 129.267,330.809 		"/>
		<polyline style="fill:none;stroke:#8CACC2;stroke-width:2;stroke-miterlimit:10;" points="230.185,257.792 239.622,300.781 
			221.689,370.504 		"/>
		<polygon style="fill:#A54440;" points="253.444,234.212 178.168,245.377 172.895,179.92 180.847,173.62 181.881,151.731 
			182.199,144.933 191.464,142.926 220.072,136.72 228.196,134.961 241.447,155.515 		"/>
		<polygon style="fill:#752B26;" points="185.422,172.753 188.782,243.803 178.168,245.377 172.895,179.92 		"/>
		
			<line style="fill:none;stroke:#F6F2E9;stroke-width:4;stroke-miterlimit:10;" x1="173.628" y1="189.021" x2="244.759" y2="177.241"/>
		
			<line style="fill:none;stroke:#F6F2E9;stroke-width:4;stroke-miterlimit:10;" x1="175.243" y1="198.772" x2="246.374" y2="186.992"/>
		<polygon style="fill:#CA9178;" points="189.471,141.869 123.105,147.093 124.686,186.807 192.016,181.274 		"/>
		<g>
			<polygon style="fill:#A54440;" points="201.515,179.92 157.322,186.58 148.288,187.508 142.055,145.384 148.898,144.853 
				192.251,141.494 			"/>
		</g>
		<polygon style="fill:#F6F2E9;" points="157.322,186.58 148.288,187.508 142.055,145.384 148.898,144.853 		"/>
		<path style="fill:#F6F2E9;" d="M222.078,145.596c0,11.36-9.203,20.563-20.563,20.563c-6.147,0-10.489-2.632-13.473-6.864
			c-2.376-3.37-3.514-7.46-3.503-11.584l0.169-5.612l35.363-5.378C221.353,139.408,222.078,142.413,222.078,145.596z"/>
		<path style="fill:#855E80;" d="M259.215,155.804c-0.753-7.531-5.319-27.567-32.44-33.198c-1.468-0.305-3.003,0.048-4.175,0.982
			l-5.994,4.775c-0.483,0.385-0.388,1.142,0.18,1.384c5.448,2.319,25.481,10.407,34.612,28.367c1.032,2.03,3.526,2.826,5.558,1.797
			l0,0C258.484,159.136,259.385,157.51,259.215,155.804z"/>
		<g>
			<path style="fill:#CA9178;" d="M189.517,144.307c-0.027,2.021,0.431,3.92,1.266,5.577c2.465,4.876,8.136,7.759,13.888,6.197
				c4.647-1.266,8.002-5.132,8.702-9.766c0.027-0.202,0.054-0.418,0.067-0.62l0.04-0.458c0.027-0.337,0.04-0.673,0.027-1.01
				l-0.31-14.333l-23.56,6.843L189.517,144.307z"/>
			<path style="fill:#B96F4E;" d="M189.517,144.307c-0.027,2.021,0.431,3.92,1.266,5.577c4.836,2.007,14.562,4.459,22.591-3.57
				c0.013-0.013,0.013-0.013,0.027-0.027l0.04-0.593l0.04-0.458c0.027-0.337,0.04-0.673,0.027-1.01l-0.31-14.333l-23.683,2.755
				L189.517,144.307z"/>
		</g>
		<g>
			<path style="fill:#3B2600;" d="M178.17,130.81c-12.655-6.48-15.807-26.865-10.776-37.412
				c6.367-13.345,30.818-21.883,49.902-2.852L178.17,130.81z"/>
			<path style="fill:#CA9178;" d="M175.305,101.146l1.778,4.607l0.579,1.495l1.819,4.742l1.899,4.93l5.119,13.269
				c2.762,7.167,9.039,12.38,16.583,13.794c1.589,0.296,3.152,0.445,4.688,0.445c15.707,0,28.087-14.939,23.978-30.956
				c-0.754-2.964-1.778-5.981-3.125-9.025c-2.977-6.695-8.055-12.164-14.158-15.761c-0.687-0.404-1.387-0.795-2.101-1.145
				c-2.775-1.401-5.739-2.425-8.77-3.031h-0.04l-1.872-0.323l-0.202-0.027c-0.93-0.121-1.886-0.215-2.829-0.256
				c-2.263-0.121-4.567-0.014-6.856,0.337l-7.288,1.091C177.097,86.45,172.611,94.142,175.305,101.146z"/>
			<path style="fill:#3B2600;" d="M186.756,122.589c11.213-3.206,12.064-15.163,6.486-27.495c0,0,6.168-8.801,15.68-9.054
				c0,0-18.756-9.691-33.178,0.24C161.321,96.211,186.756,122.589,186.756,122.589z"/>
			
				<ellipse transform="matrix(0.974 -0.2264 0.2264 0.974 -23.4379 44.2641)" style="fill:#CA9178;" cx="181.289" cy="124.33" rx="11.953" ry="11.953"/>
			<path d="M221.797,109.261c0.544,2.575,2.339,4.376,4.009,4.023c1.67-0.353,2.583-2.727,2.039-5.301
				c-0.544-2.575-2.339-4.376-4.009-4.023C222.166,104.313,221.253,106.686,221.797,109.261z"/>
			<path style="fill:#CA9178;" d="M220.59,107.426c2.521,6.064,6.685,7.313,9.577,7.355c1.857,0.027,3.383,1.464,3.532,3.315l0,0
				c0.196,2.442-1.064,4.771-3.217,5.941l-7.615,4.142c-4.27,1.428-8.842-1.13-9.86-5.516l-3.448-14.868L220.59,107.426z"/>
			<path d="M205.899,116.137c0.544,2.575,2.339,4.376,4.009,4.023c1.67-0.353,2.583-2.727,2.038-5.301
				c-0.544-2.575-2.339-4.376-4.009-4.023C206.267,111.188,205.355,113.562,205.899,116.137z"/>
			<path style="fill:none;stroke:#B96F4E;stroke-miterlimit:10;" d="M220.59,107.426c2.521,6.064,6.685,7.313,9.577,7.355
				c1.857,0.027,3.383,1.464,3.532,3.315l0,0c0.196,2.442-1.064,4.771-3.217,5.941l-5.034,2.738"/>
			<path style="fill:#3B2600;" d="M205.423,103.239c-6.262,2.612-7.983-0.603-3.491-3.324
				C206.763,96.987,213.214,99.99,205.423,103.239z"/>
			<path style="fill:#3B2600;" d="M221.491,98.163c-4.945,0.212-4.239-3.073-0.247-3.947
				C225.539,93.277,227.643,97.899,221.491,98.163z"/>
			<path style="fill:#212121;" d="M197.969,130.022c0.359,0.697,0.727,1.364,1.115,1.982c1.015,1.663,2.08,3.04,3.171,4.148
				c6.003,6.072,12.822,4.006,16.417-1.525c1.376-2.134,2.279-4.784,2.48-7.674c0,0-0.934-0.068-2.474-0.085
				C214.331,126.793,205.14,127.058,197.969,130.022z"/>
			<path style="fill:#FFFFFF;" d="M197.969,130.022c0.359,0.697,0.727,1.364,1.115,1.982l15.955-1.234
				c1.136-0.088,2.138-0.775,2.63-1.802l1.007-2.102C214.331,126.793,205.14,127.058,197.969,130.022z"/>
			<path style="fill:#B74B45;" d="M202.255,136.152c6.003,6.072,12.822,4.006,16.417-1.525
				C214.271,132.689,208.691,132.265,202.255,136.152z"/>
		</g>
		<g>
			<polygon style="fill:#855E80;" points="170.017,235.48 175.976,215.584 161.005,211.809 			"/>
		</g>
		<g>
			<path style="fill:#CA9178;" d="M158.108,212.745l18.693,10.631l11.55-6.297l1.939,0.525c0.878,0.238,1.814,0.127,2.613-0.308l0,0
				c2.143-1.169,2.483-4.106,0.663-5.733l-10.544-9.427l5.878-1.402c1.546-0.369,2.546-1.867,2.292-3.436l0,0
				c-0.225-1.395-1.383-2.45-2.792-2.545l-8.122-0.548c-3.993-0.269-7.892,1.288-10.6,4.234l-0.874,0.95l-3.157-1.013
				L158.108,212.745z"/>
			<path style="fill:#CA9178;" d="M158.108,212.745c-11.434-6.487-20.887-12.344-28.646-19.136
				c-13.418-11.748-16.121-31.589-6.357-46.513l0,0l19.579,9.089l26.122,43.205L158.108,212.745z"/>
			<g>
				
					<ellipse transform="matrix(0.9239 -0.3827 0.3827 0.9239 -67.9093 76.962)" style="fill:#232321;" cx="159.502" cy="209.182" rx="7.701" ry="7.701"/>
				<polygon style="fill:#232321;" points="163.998,207.126 168.995,199.184 165.502,193.407 156.93,204.05 				"/>
			</g>
		</g>
		<path style="fill:none;stroke:#232321;stroke-width:4;stroke-miterlimit:10;" d="M188.724,175.96c0,0,1.142,12.625-6.662,26.121"
			/>
		<path style="fill:#855E80;" d="M192.982,187.224c3.781-6.798,10.328-26.069-8.388-46.093c-1.013-1.084-2.464-1.66-3.946-1.575
			l-4.653,0.167c-1.753,0.063-3.133,1.519-3.101,3.273l0,0c3.788,3.858,12.007,18.787,10.603,44.603
			c-0.12,2.201,3.693,2.964,4.832,3.13C190.186,191,192.071,188.862,192.982,187.224z"/>
		<g>
			<path style="fill:#CA9178;" d="M306.492,129.132c0,0-0.275-13.109-4.932-23.612l22.972-6.885l-1.212,27.598L306.492,129.132z"/>
			<path style="fill:#CA9178;" d="M306.13,124.164c-3.656-10.629-10.481-15.959-10.481-15.959l-3.999-10.047
				c-0.536-1.347,0.068-2.88,1.38-3.498l0,0c1.228-0.579,2.694-0.174,3.451,0.954l2.981,4.446l10.816,8.084L306.13,124.164z"/>
			<path style="fill:#CA9178;" d="M303.59,111.09l-2.933-23.548l4.682-9.515c0.716-1.456,2.547-1.954,3.902-1.062l0,0
				c1.031,0.679,1.469,1.972,1.063,3.137l-2.501,7.191l5.733,20.581L303.59,111.09z"/>
			<path style="fill:#CA9178;" d="M311.674,111.87l-2.933-23.549l4.682-9.516c0.716-1.456,2.547-1.954,3.902-1.061l0,0
				c1.031,0.679,1.469,1.971,1.063,3.137l-2.501,7.191l5.733,20.581L311.674,111.87z"/>
			<path style="fill:#CA9178;" d="M313.671,115.888l0.265-23.729l5.921-8.798c0.906-1.346,2.787-1.593,4.009-0.526h0
				c0.93,0.812,1.19,2.151,0.631,3.252l-3.446,6.789l1.486,10.81C323.332,109.473,319.42,114.857,313.671,115.888L313.671,115.888z"
				/>
			<path style="fill:#CA9178;" d="M310.32,119.957l6.471-22.831l8.019-6.94c1.227-1.062,3.107-0.807,4.008,0.542l0,0
				c0.685,1.027,0.585,2.388-0.242,3.304l-5.105,5.649l-2.737,21.189L310.32,119.957z"/>
		</g>
		<path style="fill:none;stroke:#B96F4E;stroke-width:2;stroke-miterlimit:10;" d="M302.495,102.301
			c14.952,1.224,13.476,14.085,13.476,14.085"/>
	</g>
	<line style="fill:#752B26;" x1="258.864" y1="189.991" x2="238.409" y2="183.335"/>
</g>
</svg>
